<?xml version="1.0" standalone="no"?>
<!DOCTYPE svg PUBLIC "-//W3C//DTD SVG 20010904//EN"
 "http://www.w3.org/TR/2001/REC-SVG-20010904/DTD/svg10.dtd">
<svg version="1.0" xmlns="http://www.w3.org/2000/svg"
 width="500.000000pt" height="500.000000pt" viewBox="0 0 500.000000 500.000000"
 preserveAspectRatio="xMidYMid meet">
<metadata>
Created by potrace 1.14, written by Peter Selinger 2001-2017
</metadata>
<g transform="translate(0.000000,500.000000) scale(0.100000,-0.100000)"
fill="#000000" stroke="none">
<path d="M3320 4556 c-233 -53 -421 -156 -590 -326 -145 -145 -250 -324 -300
-510 -12 -47 -26 -94 -30 -105 -4 -12 -75 -58 -178 -116 -95 -53 -169 -99
-165 -103 4 -4 85 -50 179 -103 l172 -96 7 -45 c4 -24 18 -79 32 -121 133
-400 474 -700 893 -786 84 -18 351 -24 410 -10 14 3 48 10 75 15 335 66 637
290 809 601 l36 66 163 0 162 -1 3 42 c2 29 -1 42 -10 43 -7 0 -74 1 -149 1
l-137 1 8 28 c5 16 11 32 14 37 3 5 65 9 138 9 l133 -1 3 42 c2 29 -1 42 -10
43 -7 0 -64 1 -126 1 l-114 1 7 46 c11 69 14 279 5 336 -30 179 -50 245 -116
380 -82 168 -238 346 -394 450 -134 89 -258 139 -479 191 -14 4 -98 8 -186 10
-140 3 -173 0 -265 -20z m-230 -1944 c79 -41 169 -73 275 -97 73 -17 246 -22
350 -10 156 19 368 106 470 194 l30 26 -24 -27 c-65 -74 -273 -183 -411 -215
-78 -18 -281 -24 -371 -11 -158 23 -351 116 -464 223 l-50 47 60 -46 c33 -24
94 -62 135 -84z"/>
<path d="M2417 4423 c-1 -1 -22 -4 -46 -8 -92 -14 -218 -69 -276 -123 -17 -15
-70 -63 -120 -107 -49 -44 -95 -84 -101 -90 -6 -5 -44 -39 -84 -75 -41 -36
-81 -72 -90 -80 -81 -77 -184 -160 -198 -161 -9 0 -174 -2 -367 -3 -318 -4
-358 -6 -435 -25 -135 -35 -221 -81 -310 -170 -132 -130 -183 -273 -185 -516
l0 -40 1073 0 c947 0 1072 2 1072 15 0 8 -4 20 -8 27 -7 11 -115 74 -302 176
-41 22 -117 65 -169 94 -51 29 -98 53 -103 53 -24 0 22 28 285 176 l284 159
28 85 c62 190 178 372 332 521 51 49 93 91 93 92 0 3 -371 3 -373 0z"/>
<path d="M185 2898 c-13 -82 -14 -142 0 -174 24 -58 48 -63 284 -64 l212 -1
34 -31 c19 -16 35 -35 35 -42 0 -6 16 -42 36 -81 91 -180 285 -298 486 -297
135 0 246 38 344 118 86 70 111 102 159 201 69 141 42 132 428 135 l325 3 -45
75 c-24 41 -55 101 -70 133 l-26 57 -1098 0 -1098 0 -6 -32z"/>
<path d="M2700 2072 c-6 -2 -10 -144 -10 -398 l0 -395 82 3 83 3 1 85 c1 47 2
87 3 89 0 2 42 -37 93 -88 l92 -91 105 0 105 0 -120 121 c-65 66 -121 122
-123 124 -2 3 44 53 103 111 59 58 105 109 102 112 -3 3 -49 5 -102 5 l-96 0
-82 -82 -82 -82 0 236 c1 131 -1 240 -4 243 -5 7 -132 10 -150 4z"/>
<path d="M308 2042 c-43 -2 -78 -4 -78 -6 0 -2 62 -95 137 -207 l137 -204 1
-173 0 -173 85 3 85 3 2 169 2 168 140 209 140 209 -105 0 -105 0 -79 -121
-78 -122 -79 121 c-87 134 -78 129 -205 124z"/>
<path d="M1093 2042 l-103 -3 0 -32 c-1 -50 -1 -679 0 -704 0 -22 4 -23 85
-23 l85 0 1 43 c0 23 0 86 1 140 0 83 2 97 16 97 178 6 229 20 286 79 40 42
65 121 59 189 -10 132 -98 205 -253 211 -35 2 -67 3 -70 4 -3 1 -51 1 -107 -1z
m223 -176 c17 -19 24 -39 24 -67 0 -65 -51 -99 -146 -99 l-33 0 1 101 0 101
65 -4 c57 -4 69 -8 89 -32z"/>
<path d="M3335 2036 c-41 -18 -56 -39 -60 -81 -5 -54 38 -100 93 -100 106 0
134 140 37 181 -40 16 -33 16 -70 0z"/>
<path d="M1749 1761 c-84 -17 -152 -89 -174 -183 -6 -29 -11 -60 -10 -68 10
-63 14 -79 28 -110 20 -43 32 -59 77 -92 77 -58 201 -53 273 10 16 14 17 13
17 -11 0 -27 0 -27 80 -27 l80 0 -2 237 -3 236 -72 0 c-40 -1 -77 -2 -82 -2
-6 -1 -8 -9 -6 -20 3 -17 1 -17 -38 4 -48 27 -115 37 -168 26z m146 -145 c53
-23 75 -79 55 -141 -28 -85 -161 -91 -198 -9 -26 56 -2 126 51 149 41 18 50
18 92 1z"/>
<path d="M2496 1759 c-16 -4 -47 -23 -69 -40 -34 -28 -39 -30 -35 -12 12 46
-13 53 -149 44 -10 -1 -13 -55 -13 -236 l0 -236 82 3 82 3 1 135 c0 91 5 143
14 158 24 43 100 59 152 32 12 -7 22 5 48 58 31 62 32 67 15 79 -10 7 -25 14
-33 14 -9 1 -27 2 -41 4 -14 1 -38 -1 -54 -6z"/>
<path d="M3818 1760 c-15 -5 -41 -18 -58 -30 l-30 -21 0 20 c0 12 -6 21 -12
22 -18 1 -120 1 -139 0 -15 -1 -16 -26 -16 -236 l1 -235 81 0 81 0 1 151 c0
149 1 151 27 177 34 35 96 37 128 4 24 -23 25 -33 28 -294 l0 -38 80 0 80 0 0
174 c0 181 -7 223 -47 258 -44 40 -148 64 -205 48z"/>
<path d="M4292 1751 c-94 -36 -145 -115 -149 -230 -2 -83 20 -143 74 -193 64
-61 194 -79 276 -39 l39 20 -5 -41 c-3 -24 -15 -51 -29 -65 -44 -43 -141 -43
-188 0 l-25 23 -63 -28 c-35 -16 -62 -34 -62 -43 0 -29 61 -84 117 -105 53
-20 164 -28 219 -16 81 17 146 67 175 134 16 38 19 73 20 307 0 145 -1 268 -4
272 -3 4 -38 8 -79 7 -67 0 -73 -2 -76 -22 -3 -22 -4 -22 -30 -3 -56 38 -143
48 -210 22z m178 -136 c55 -28 74 -86 50 -149 -19 -52 -108 -76 -159 -44 -71
44 -56 174 23 197 45 13 54 13 86 -4z"/>
<path d="M3315 1752 l-30 -3 0 -234 0 -235 83 0 82 0 0 235 c0 217 -1 235 -17
236 -54 3 -91 4 -118 1z"/>
<path d="M1830 970 c0 -71 4 -130 8 -130 5 0 8 47 8 105 -1 58 2 105 5 105 3
0 23 -45 45 -99 21 -55 43 -101 48 -103 5 -2 31 49 57 112 l47 115 -1 -114
c-1 -68 3 -116 9 -118 10 -3 13 241 3 251 -11 12 -28 -15 -66 -107 -22 -54
-43 -99 -47 -100 -4 -1 -26 45 -49 103 -23 58 -48 106 -54 108 -10 1 -13 -29
-13 -128z"/>
<path d="M2153 1023 c-27 -10 -11 -21 16 -12 39 14 71 -3 71 -36 0 -20 -5 -25
-27 -26 -68 -2 -93 -18 -93 -59 0 -47 44 -67 94 -42 24 12 30 12 38 0 6 -8 8
19 6 75 -2 65 -7 90 -18 97 -16 10 -66 12 -87 3z m89 -106 c13 -25 -33 -69
-67 -63 -37 7 -43 13 -38 40 8 40 85 57 105 23z"/>
<path d="M2320 936 c0 -54 4 -95 9 -92 5 3 9 36 9 73 0 56 3 70 21 84 23 19
70 16 83 -4 4 -7 8 -45 8 -84 0 -42 4 -73 10 -73 6 0 10 31 10 73 0 92 -15
117 -70 117 -21 0 -42 -5 -45 -10 -5 -8 -11 -7 -21 1 -12 10 -14 -3 -14 -85z"/>
<path d="M2540 1013 c0 -10 5 -11 19 -4 37 20 80 -2 81 -41 0 -13 -8 -18 -30
-18 -31 0 -89 -24 -91 -38 0 -4 -2 -14 -4 -23 -4 -21 19 -50 42 -51 29 -2 73
11 73 23 0 6 -5 7 -10 4 -39 -24 -91 -10 -85 23 2 9 4 20 4 24 1 8 51 24 76
24 16 -1 20 -8 20 -38 1 -21 6 -43 13 -50 17 -17 11 144 -7 166 -18 21 -101
20 -101 -1z"/>
<path d="M2726 1008 c-20 -28 -20 -62 -1 -78 11 -9 12 -17 4 -32 -8 -14 -8
-23 -1 -30 8 -8 4 -16 -10 -28 -43 -34 -20 -79 44 -84 49 -4 85 12 96 43 14
41 -6 62 -63 66 -26 2 -49 6 -52 9 -13 12 8 36 32 36 14 0 37 11 50 24 20 21
23 29 15 55 -5 17 -5 29 -1 27 4 -3 13 -1 21 5 10 6 -7 9 -52 9 -58 0 -69 -3
-82 -22z m80 4 c19 -12 25 -47 12 -65 -30 -40 -88 -21 -88 28 0 35 46 57 76
37z m24 -172 c36 -23 4 -70 -47 -70 -48 0 -73 15 -68 42 3 12 10 25 17 30 18
11 80 10 98 -2z"/>
<path d="M2938 1023 c-35 -9 -53 -81 -34 -139 12 -39 101 -63 129 -35 7 7 -2
9 -32 6 -35 -3 -47 0 -67 20 -37 37 -31 55 19 56 89 2 92 3 93 27 3 52 -46 82
-108 65z m80 -30 c15 -20 16 -43 2 -44 -5 0 -31 -1 -57 -1 -42 0 -48 2 -45 18
8 47 72 65 100 27z"/>
<path d="M3102 938 c0 -54 4 -98 9 -98 5 0 9 29 9 64 0 35 2 70 5 78 3 7 -1
22 -9 33 -13 18 -14 10 -14 -77z"/>
<path d="M3143 1023 c-25 -10 -12 -22 13 -13 14 6 30 8 35 4 5 -3 9 0 9 5 0
11 -35 14 -57 4z"/>
</g>
</svg>
